# xmcd CD database file
#
# Track frame offsets:
#	150
#	9412
#	29142
#	38762
#	54100
#	86968
#	106405
#	122800
#	140048
#	154710
#	178180
#	223944
#	288070
#
# Disc length: 4211 seconds
#
# Revision: 0
# Processed by: cddbd v1.4PL0 Copyright (c) Steve Scherf et al.
# Submitted via: Feurio! 1.65 - http://www.feurio.com
#
DISCID=ba10710d
DTITLE=Various Artist - Bill Withers 'n stuff
DYEAR=1900
DGENRE=
TTITLE0=Bill Withers  - Grandma's Hands
TTITLE1=Bill Withers  - Lean on Me
TTITLE2=Bill Withers  - Ain't No Sunshine
TTITLE3=Bill Withers  - Harlem
TTITLE4=Bill Withers  - Just The Two of us
TTITLE5=Bill Withers  - Lovely Day
TTITLE6=Bill Withers  - Soul Shadows
TTITLE7=Bill Withers  - use me
TTITLE8=Bill Withers  - Who is He
TTITLE9=Quincy Jones - Killer Joe
TTITLE10=Oldymedly - (Edit)
TTITLE11=Village People - In The Navy - YMCA
TTITLE12=Les Rita Mitsouko - Marcia Baila
EXTD=
EXTT0=
EXTT1=
EXTT2=
EXTT3=
EXTT4=
EXTT5=
EXTT6=
EXTT7=
EXTT8=
EXTT9=
EXTT10=
EXTT11=
EXTT12=
PLAYORDER=
